inDegrees=no
num_controls=7
num_derivatives=13
num_iterations=106
num_multipliers=7
num_parameters=0
num_slacks=7
num_states=26
objective=0.497141
objective_accelerations=0.032342
objective_balance=0.003243
objective_effort=0.035056
objective_height=0.421009
objective_ligament=0.005490
solver_duration=1225.719066
status=Solve_Succeeded
success=true
DataType=double
version=3
OpenSimVersion=4.5
endheader
time	/jointset/ground_pelvis/pelvis_tilt/value	/jointset/ground_pelvis/pelvis_tx/value	/jointset/ground_pelvis/pelvis_ty/value	/jointset/hip_r/hip_flexion_r/value	/jointset/hip_r/hip_adduction_r/value	/jointset/hip_r/hip_rotation_r/value	/jointset/back/lumbar_extension/value	/jointset/patellofemoral_r/patellar_flexion_r/value	/jointset/knee_r/knee_flexion_r/value	/jointset/knee_r/knee_adduction_r/value	/jointset/knee_r/knee_rotation_r/value	/jointset/ankle_r/ankle_angle_r/value	/jointset/subtalar_r/subtalar_angle_r/value	/jointset/ground_pelvis/pelvis_tilt/speed	/jointset/ground_pelvis/pelvis_tx/speed	/jointset/ground_pelvis/pelvis_ty/speed	/jointset/hip_r/hip_flexion_r/speed	/jointset/hip_r/hip_adduction_r/speed	/jointset/hip_r/hip_rotation_r/speed	/jointset/back/lumbar_extension/speed	/jointset/patellofemoral_r/patellar_flexion_r/speed	/jointset/knee_r/knee_flexion_r/speed	/jointset/knee_r/knee_adduction_r/speed	/jointset/knee_r/knee_rotation_r/speed	/jointset/ankle_r/ankle_angle_r/speed	/jointset/subtalar_r/subtalar_angle_r/speed	/forceset/tau_hip_flexion_r	/forceset/tau_hip_adduction_r	/forceset/tau_hip_rotation_r	/forceset/tau_knee_flexion_r	/forceset/tau_ankle_angle_r	/forceset/tau_subtalar_angle_r	/forceset/tau_lumbar_extension	lambda_cid13_p0	lambda_cid14_p0	lambda_cid14_p1	lambda_cid14_p2	lambda_cid14_p3	lambda_cid14_p4	lambda_cid14_p5	/jointset/ground_pelvis/pelvis_tilt/accel	/jointset/ground_pelvis/pelvis_tx/accel	/jointset/ground_pelvis/pelvis_ty/accel	/jointset/hip_r/hip_flexion_r/accel	/jointset/hip_r/hip_adduction_r/accel	/jointset/hip_r/hip_rotation_r/accel	/jointset/back/lumbar_extension/accel	/jointset/patellofemoral_r/patellar_flexion_r/accel	/jointset/knee_r/knee_flexion_r/accel	/jointset/knee_r/knee_adduction_r/accel	/jointset/knee_r/knee_rotation_r/accel	/jointset/ankle_r/ankle_angle_r/accel	/jointset/subtalar_r/subtalar_angle_r/accel	gamma_cid13_p0	gamma_cid14_p0	gamma_cid14_p1	gamma_cid14_p2	gamma_cid14_p3	gamma_cid14_p4	gamma_cid14_p5
1.5	-0.1095567886548969	0.06225544165264842	0.8714009670115773	0.6649174888888892	-0.2276697561992997	-0.143982023321705	-0.2784432906836616	0.642381204726981	0.6423812047267152	0.04257254970341318	0.1744796116728409	0.2569172201644691	0.05814125530427278	0.2363276326407732	0.1161809472948424	0.3229004052067835	-1.444000147250827	0.01875724346794107	-0.2817970113014825	0.7030441870907559	-1.739774446469053	-1.739774446469038	0.2770219758068249	5.213305616497891e-05	-0.6218560321246108	-0.1531713373773098	-0.06542864591727131	-0.01625558697264609	0.006606497391306722	-0.3208120614508634	0.05464248496115903	-0.01210168226573988	0.1223044547135042	-34.48774907245165	-24.20532576651808	-5.447005765935843	-3.294199803977027	3.223338212973444	-662.5939773872548	57.10672369357228	0.04843735976214809	0.2683593842588735	-0.4424743071177921	-0.7310343584281532	-0.016338704328236	-0.5527261735696914	1.2087938685714	-1.019988802994017	-1.019988802994036	0.384051491663503	-0.008232668563675568	-0.4569116649140844	-0.02770855340393009	1.188920617959061e-07	1.517510462767374e-07	-6.272702145464734e-07	1.231665858430921e-06	-1.414009280530377e-08	1.844416524758378e-07	-9.226767979932851e-07
1.51	-0.1071914983967433	0.06343046463069461	0.8746071059825126	0.6504429885684681	-0.2274837582605956	-0.1468267680898781	-0.2713534852062116	0.6249349998530289	0.6249349998529997	0.04536371473943237	0.1744800128653113	0.2506764280049041	0.05660731745326859	0.2366975141051952	0.1188007213411405	0.3182574750274663	-1.450684438553109	0.01844273930544447	-0.2871355689757342	0.714794840322414	-1.749201677797078	-1.74920167779707	0.2811908645224027	2.480863435927927e-05	-0.6262125552915518	-0.1535891908218904	-0.05978547664759246	-0.01825372739722933	0.005964126961307323	-0.3177764195087016	0.05877264234168982	-0.0128395621524662	0.1170382774151481	-35.37478013302458	-22.75058952960478	-5.401100346191342	-3.429052392192458	2.748215543093754	-659.4248464636265	57.28409535797745	0.02634266118439951	0.2553476205071932	-0.4856494837277568	-0.6047863515840035	-0.03880705236363659	-0.521753941585448	1.139890839031729	-0.8643893492116123	-0.8643893492126782	0.4302442173815177	-0.0002554216702832786	-0.4115296415615037	-0.04474263229034292	1.283030988059355e-07	1.54660490291615e-07	-7.412123471424233e-07	1.261952655363805e-06	-3.976229258514679e-09	1.946525808973265e-07	-1.010182982886988e-06
1.52	-0.1048234934996585	0.06463099759034251	0.8777647262295766	0.6359081133679367	-0.2273008655195436	-0.1497243651102426	-0.2641498352387305	0.6074024628555008	0.6074024628556968	0.04819595599378646	0.1744800861950226	0.2443947692138746	0.0550700172893578	0.2368705604256865	0.121282943615184	0.3131966604325657	-1.456075123273622	0.0181362039368144	-0.2923674617392865	0.7258130850968039	-1.757040871185299	-1.757040871185298	0.2852372194730413	-1.343949469640094e-05	-0.6300293584175887	-0.1538437999586796	-0.054142307377923	-0.02025186782180953	0.005321756531269596	-0.3147407775665415	0.06290279972222045	-0.01357744203918856	0.1117721001167835	-36.22791234291239	-21.30451619861195	-5.35400143136262	-3.567191946999516	2.268210338828387	-656.3991087155509	57.5352151161116	0.009070330976108678	0.2408490298078574	-0.5260511902345023	-0.4723130420742584	-0.0147449455549211	-0.5313931914298266	1.062312177117738	-0.7023812150330913	-0.7023812150331021	0.3595447386756335	-0.01041741001366042	-0.3489676567332798	0.004940308154313319	1.37958159619463e-07	1.563553748293251e-07	-8.624013103514179e-07	1.283268779765246e-06	7.436246621847449e-09	2.032482228479861e-07	-1.094472865266483e-06
1.53	-0.1024546990895625	0.06585565192729145	0.8808696943756744	0.6213258201225492	-0.2271210802732271	-0.1526739049568169	-0.2568397750340637	0.5897996646440251	0.5897996646440022	0.05106806999248232	0.1744799553874921	0.2380777362305513	0.05353090860772933	0.2368599728733938	0.1236232279287091	0.3077317603537425	-1.460161802700517	0.01781865660166917	-0.2975128717046997	0.7360643544486215	-1.763231131008423	-1.763231131008423	0.2891688890077789	-1.666658823275795e-05	-0.6332749674534772	-0.1539525020000331	-0.04841693235011295	-0.02244640566336652	0.004696497653397354	-0.3118318084271229	0.06727392561959224	-0.01443120690084628	0.1064538816662564	-37.04257787782584	-19.79059449742964	-5.35193625302814	-3.690629763463654	1.745989466398335	-653.4344552773823	57.7497827743419	-0.01036087267179673	0.2269191540187142	-0.5664479196090084	-0.3435687131308433	-0.04047170221460233	-0.501739321430225	0.9863441061306583	-0.5342329866530265	-0.5342329866530251	0.4074037561762235	0.004358080102320014	-0.2969948296250236	-0.01497363141126975	1.478724957242072e-07	1.567597899225448e-07	-9.912900310867725e-07	1.295053564602029e-06	2.017537310663093e-08	2.101276229233895e-07	-1.175345426224632e-06
1.54	-0.1000868580698507	0.06710296931175477	0.8839180658204032	0.6067093154188697	-0.2269445129152027	-0.1556740237875144	-0.2494312401774948	0.5721435869101816	0.5721435869099306	0.05397898582558958	0.1744797189968488	0.2317313196963479	0.05199147327146132	0.2366798823474891	0.1258155531180615	0.3018773201587929	-1.462917414932761	0.01749262627771169	-0.3024832585634389	0.7455080154770977	-1.767696775659583	-1.767696775659582	0.2929975863546504	-3.455611673113727e-05	-0.6359060685937017	-0.1539091308866301	-0.04269155732231547	-0.02464094350492493	0.004071238775518223	-0.3089228392877071	0.07164505151696246	-0.01528497176250627	0.1011356632157187	-37.81421930611004	-18.28575204540759	-5.348432800797944	-3.817756449351547	1.218942069924751	-650.6221743660444	58.04216137760247	-0.02483026374618296	0.2112572049732321	-0.6039592134598142	-0.2060996031441352	-0.01644154331736414	-0.4963885700950453	0.9007905124494892	-0.3574581806400519	-0.3574581806400516	0.3389503011023949	-0.01334989700605289	-0.2260660776005601	0.03535493910559604	1.584329745346319e-07	1.56240984369298e-07	-1.129508083566939e-06	1.301364188084515e-06	3.440921512579002e-08	2.152598653298886e-07	-1.25608328437603e-06
